<?xml version="1.0" encoding="iso-8859-1"?>
<!-- Generator: Adobe Illustrator 17.1.0, SVG Export Plug-In . SVG Version: 6.00 Build 0)  -->
<!DOCTYPE svg PUBLIC "-//W3C//DTD SVG 1.1//EN" "http://www.w3.org/Graphics/SVG/1.1/DTD/svg11.dtd">
<svg version="1.1" id="Layer_1" xmlns="http://www.w3.org/2000/svg" xmlns:xlink="http://www.w3.org/1999/xlink" x="0px" y="0px"
	 viewBox="0 0 727.594 727.469" style="enable-background:new 0 0 727.594 727.469;" xml:space="preserve">
<path style="fill:#BF2026;stroke:#BF2227;stroke-width:0.25;stroke-miterlimit:10;" d="M545.502,181.964
	c50.185,0,95.624,20.347,128.515,53.237c0.003-46.515-17.743-93.029-53.231-128.518c-70.98-70.976-186.059-70.976-257.038,0
	c-70.976,70.977-70.976,186.056,0,257.032l0.003,0.006c0-0.006,0-0.006,0-0.006C363.75,263.343,445.119,181.967,545.502,181.964z"/>
<path style="fill:#AA1E22;stroke:#AA1F23;stroke-width:0.25;stroke-miterlimit:10;" d="M181.998,545.47
	c-50.188,0-95.624-20.347-128.514-53.237c-0.003,46.515,17.742,93.026,53.234,128.514c70.976,70.983,186.056,70.983,257.032,0.006
	s70.976-186.062,0-257.038l0,0c0,0,0,0,0,0.006C363.75,464.098,282.378,545.47,181.998,545.47z"/>
<path style="fill:#B41F24;stroke:#B42025;stroke-width:0.25;stroke-miterlimit:10;" d="M545.502,545.47
	c0,50.188-20.344,95.624-53.237,128.514c46.515,0,93.029-17.742,128.521-53.231c70.976-70.983,70.976-186.062,0-257.038
	c-70.98-70.976-186.059-70.976-257.035,0h-0.003c0.003,0,0.003,0,0.003,0C464.126,363.716,545.502,445.091,545.502,545.47z"/>
<path style="fill:#D32026;stroke:#D32127;stroke-width:0.25;stroke-miterlimit:10;" d="M181.998,181.967
	c0-50.185,20.347-95.625,53.237-128.515c-46.515,0-93.029,17.742-128.518,53.231c-70.98,70.983-70.98,186.056,0,257.038
	c70.976,70.977,186.056,70.977,257.032,0v-0.006c0,0,0,0-0.003,0C263.371,363.716,181.998,282.35,181.998,181.967z"/>
<path style="fill:#B92025;stroke:#B92226;stroke-width:0.25;stroke-miterlimit:10;" d="M620.785,363.716
	c35.488,35.488,53.231,82.003,53.231,128.518c32.89-32.887,53.234-78.323,53.234-128.518c0-100.379-81.372-181.752-181.752-181.752
	c-100.376,0-181.752,81.379-181.752,181.752l0,0c0.003,0,0.003,0,0.003,0C434.726,292.739,549.806,292.739,620.785,363.716z"/>
<path style="fill:#A51E21;stroke:#A51E22;stroke-width:0.25;stroke-miterlimit:10;" d="M106.715,363.716
	c-35.488-35.488-53.231-82-53.228-128.514C20.594,268.091,0.25,313.525,0.25,363.716c0,100.382,81.372,181.748,181.752,181.755
	c100.373,0,181.748-81.372,181.748-181.755l0,0c0,0,0,0-0.003,0C292.77,434.692,177.695,434.699,106.715,363.716z"/>
<path style="fill:#AF1F23;stroke:#AF2024;stroke-width:0.25;stroke-miterlimit:10;" d="M363.75,620.754
	c-35.488,35.488-82,53.231-128.518,53.227c32.89,32.896,78.326,53.237,128.518,53.237c100.379,0,181.752-81.372,181.752-181.755
	c0-100.373-81.375-181.748-181.752-181.748h-0.003c0.003,0,0.003,0,0.003,0C434.726,434.692,434.726,549.771,363.75,620.754z"/>
<path style="fill:#C92027;stroke:#C92128;stroke-width:0.25;stroke-miterlimit:10;" d="M363.75,106.683
	c35.488-35.488,82.003-53.231,128.518-53.231c-32.887-32.89-78.33-53.234-128.518-53.234c-100.379,0-181.752,81.369-181.752,181.749
	c0,100.376,81.372,181.748,181.748,181.748h0.003c0,0,0,0-0.003,0C292.77,292.739,292.77,177.666,363.75,106.683z"/>
</svg>
